<?xml version="1.0" encoding="utf-8"?>
<!-- Generator: Adobe Illustrator 22.0.1, SVG Export Plug-In . SVG Version: 6.00 Build 0)  -->
<svg version="1.1" id="Capa_1" xmlns="http://www.w3.org/2000/svg" xmlns:xlink="http://www.w3.org/1999/xlink" x="0px" y="0px"
	 viewBox="0 0 400 400" style="enable-background:new 0 0 400 400;" xml:space="preserve">
<g>
	<path d="M139.7,54.3h-24.9H72.2H47.3c-1.1,0-1.8,0.7-1.8,1.8v7.2v11v262.5c0,1.1,0.7,1.8,1.8,1.8h8.9v5.3c0,1.1,0.7,1.8,1.8,1.8
		H129c1.1,0,1.8-0.7,1.8-1.8v-5.3h8.9c1.1,0,1.8-0.7,1.8-1.8V56.1C141.5,55,140.8,54.3,139.7,54.3z M59.7,189.3V75.7h67.5v113.7
		H59.7z M127.3,200v3.6H59.7V200H127.3z M74,57.9H113v3.6H74V57.9z M127.3,320.8H59.7v-7.1h67.5V320.8z M127.3,310.1H59.7v-95.9
		h67.5V310.1z"/>
	<path d="M352.7,54.3h-24.9h-42.6h-24.9c-1.1,0-1.8,0.7-1.8,1.8v7.2v11v262.5c0,1.1,0.7,1.8,1.8,1.8h8.9v5.3c0,1.1,0.7,1.8,1.8,1.8
		H342c1.1,0,1.8-0.7,1.8-1.8v-5.3h8.9c1.1,0,1.8-0.7,1.8-1.8V56.1C354.5,55,353.8,54.3,352.7,54.3z M272.7,189.3V75.7h67.5v113.7
		H272.7z M340.3,200v3.6h-67.5V200H340.3z M287,57.9H326v3.6H287V57.9z M340.3,320.8h-67.5v-7.1h67.5V320.8z M340.3,310.1h-67.5
		v-95.9h67.5V310.1z"/>
	<path d="M235.6,153.8h-17.1c-3.6-11-10.7-19.2-19.2-19.2c-8.5,0-15.6,8.2-19.2,19.2h-15.6c-1.1,0-1.8,0.7-1.8,1.8V248
		c0,1.1,0.7,1.8,1.8,1.8h71.1c1.1,0,1.8-0.7,1.8-1.8v-92.4C237.4,154.5,236.7,153.8,235.6,153.8z M199.4,138.2
		c6.8,0,12.8,6,15.6,15.6h-31.3C186.6,144.2,192.6,138.2,199.4,138.2z M179.8,176.9c-5,0-8.9-5.3-8.9-8.9h3.6c0,3.6,2.5,5.3,5.3,5.3
		s5.3-1.8,5.3-5.3h3.6C188.7,171.6,184.8,176.9,179.8,176.9z M218.9,176.9c-5,0-8.9-5.3-8.9-8.9h3.6c0,3.6,2.5,5.3,5.3,5.3
		s5.3-1.8,5.3-5.3h3.6C227.8,171.6,223.9,176.9,218.9,176.9z"/>
</g>
</svg>
