<?xml version="1.0" encoding="utf-8"?>
<!-- Generator: Adobe Illustrator 22.0.1, SVG Export Plug-In . SVG Version: 6.00 Build 0)  -->
<svg version="1.1" id="Capa_1" xmlns="http://www.w3.org/2000/svg" xmlns:xlink="http://www.w3.org/1999/xlink" x="0px" y="0px"
	 viewBox="0 0 187.2 36" style="enable-background:new 0 0 187.2 36;" xml:space="preserve">
<style type="text/css">
	.st0{fill:#FFFFFF;}
	.st1{fill:#72A538;}
	.st2{fill:#31408C;}
	.st3{fill:#C4142D;}
</style>
<g>
	<path d="M67.5,20.8v-1.3c0-2.9-1.2-4.1-4.2-4.1c-1.1,0-2.4,0.3-3.4,0.7l0.1,2.2c0.9-0.7,1.9-1.1,3-1.1c1.5,0,2.2,0.5,2.2,2.1h-1.4
		c-1.1,0-2.3,0.1-3.3,0.6c-1,0.5-1.7,1.3-1.7,2.8c0,1.9,1.7,2.9,3.4,2.9c1.2,0,2.4-0.6,3-1.7h0c0,0.3,0,0.9,0.1,1.5h2.2
		c-0.1-0.8-0.1-1.5-0.1-2.2C67.5,22.6,67.5,21.8,67.5,20.8 M64.7,23c-0.4,0.5-1,0.9-1.8,0.9c-0.9,0-1.6-0.4-1.6-1.2
		c0-1.5,1.7-1.7,2.8-1.7h1.1C65.2,21.7,65.1,22.4,64.7,23 M98.8,15.4c0-1.7,1.5-2.3,2.9-2.3c0.9,0,1.8,0.2,2.4,0.5l0.2-1.2
		c-0.9-0.3-2-0.4-2.6-0.4c-2.3,0-4.2,1.3-4.2,3.5c0,3.5,6.1,3.8,6.1,6.4c0,1.9-1.3,2.7-3,2.7c-1.2,0-2.1-0.3-2.9-0.8l-0.1,1.3
		c0.7,0.3,1.7,0.6,3,0.6c2.1,0,4.4-1.1,4.4-3.7C104.9,18.1,98.8,18.1,98.8,15.4 M58.8,15.5c-0.3-0.1-0.5-0.1-0.8-0.1
		c-1.5,0-2.6,1.5-2.7,2.5h0v-2.2h-2.3v9.8h2.6v-3.6c0-1.4,0-4,2.1-4c0.5,0,0.9,0.1,1.1,0.2V15.5z M113.4,19.2c0-2.5-1-3.6-3.4-3.6
		c-0.9,0-2.1,0.3-2.8,0.7v1.2c0.9-0.6,1.8-0.8,2.8-0.8c1.6,0,2.2,0.8,2.2,2.5v0.5H112c-2.5,0-6,0.2-6,3.4c0,0.9,0.4,2.7,3.2,2.7
		c1.2,0,2.5-0.6,3.1-1.8h0v1.6h1.2c-0.1-0.7-0.1-1.3-0.1-2V19.2z M112.2,21.2c0,1-0.1,3.5-2.9,3.5c-1.1,0-2-0.5-2-1.7
		c0-2.1,2.5-2.3,4.5-2.3h0.3V21.2z M84.4,23.7c-1.8,0-2.6-1.4-2.6-3.2c0-1.9,1-3.1,2.6-3.1c0.8,0,1.3,0.2,1.7,0.4l0.2-2
		c-0.7-0.2-1.4-0.3-2.5-0.3c-3.1,0-4.7,2.2-4.7,5.1c0,3,1.6,5.2,4.8,5.2c1,0,1.8-0.1,2.6-0.3l-0.1-2.1C86,23.5,85.2,23.7,84.4,23.7
		 M75.5,20.5c0,1.3-0.4,3.3-2.2,3.3c-1.6,0-1.7-1.6-1.7-2.8v-5.2h-2.5v6.2c0,2.2,1,3.8,3.3,3.8c1.3,0,2.4-0.6,3.2-1.6h0v1.3h2.4
		v-9.8h-2.6V20.5z M44.3,12.2l-5.2,13.3h2.8l1.2-3l4.6-2.1h-3.9l1.9-5.5h0l1.9,5.5l1.9,5.1h3l-5.2-13.3H44.3z M91.7,15.5
		c-2.9,0-5.1,2-5.1,5.2c0,2.8,1.9,5.1,5.1,5.1c3.3,0,5.1-2.2,5.1-5.1C96.9,17.4,94.7,15.5,91.7,15.5 M91.7,23.7
		c-1.9,0-2.5-1.8-2.5-3.4c0-1.5,0.8-2.9,2.5-2.9c1.7,0,2.5,1.4,2.5,2.9C94.2,22,93.7,23.7,91.7,23.7 M174,12.2h-1.2v1.6h1.2V12.2z
		 M180.2,15.6c-3.1,0-4.5,2.4-4.5,5.1c0,2.6,1.4,5.1,4.5,5.1c3.1,0,4.5-2.4,4.5-5.1C184.7,18,183.3,15.6,180.2,15.6 M180.2,24.7
		c-2.1,0-3.2-1.8-3.2-4.1c0-2.2,1.1-4,3.2-4c2.1,0,3.2,1.8,3.2,4C183.4,22.9,182.3,24.7,180.2,24.7 M172.8,25.5h1.2v-9.7h-1.2V25.5z
		 M184.6,9.5c-1.5,0-2.7,1.2-2.7,2.7c0,1.5,1.2,2.7,2.7,2.7c1.5,0,2.7-1.2,2.7-2.7C187.2,10.7,186,9.5,184.6,9.5 M184.6,14.4
		c-1.1,0-2-0.9-2-2.2c0-1.3,0.9-2.2,2-2.2c1.1,0,2,0.9,2,2.2C186.6,13.5,185.7,14.4,184.6,14.4 M185.8,11.6c0-0.6-0.4-0.9-1.1-0.9
		h-1.1v3h0.6v-1.3h0.3l0.8,1.3h0.6l-0.8-1.3C185.5,12.3,185.8,12.1,185.8,11.6 M184.1,12v-0.9h0.5c0.3,0,0.6,0.1,0.6,0.4
		c0,0.4-0.3,0.5-0.6,0.5H184.1z M150.7,24.7c-1,0-1.3-0.7-1.3-1.6v-6.3h2.2v-1h-2.2v-2.8l-1.2,0.4v2.3h-1.9v1h1.9v5.7
		c0,1.8,0.1,3.2,2.2,3.2c0.6,0,1.2-0.2,1.5-0.3l-0.1-1C151.4,24.6,151.1,24.7,150.7,24.7 M141.7,15.6c-2,0-2.7,1.1-3.1,2h0v-1.7
		h-1.2c0.1,0.8,0.1,1.5,0.1,2.3v7.4h1.2v-5.4c0-1.6,0.7-3.5,2.9-3.5c1.7,0,2.3,1.2,2.3,3v5.9h1.2v-6.2
		C145,17.2,144.1,15.6,141.7,15.6 M129.7,12.3l-5.4,13.3h1.3l1.4-3.6h6.7l1.4,3.6h1.4l-5.3-13.3H129.7z M127.4,20.8l2.9-7.3l2.9,7.3
		H127.4z M156.8,15.6c-3.1,0-4.5,2.4-4.5,5.1c0,2.6,1.4,5.1,4.5,5.1c3.1,0,4.5-2.4,4.5-5.1C161.3,18,160,15.6,156.8,15.6
		 M156.8,24.7c-2.1,0-3.2-1.8-3.2-4.1c0-2.2,1.1-4,3.2-4c2.1,0,3.2,1.8,3.2,4C160,22.9,158.9,24.7,156.8,24.7 M119.8,15.6
		c-2,0-2.7,1.1-3.1,2h0v-1.7h-1.2c0.1,0.8,0.1,1.5,0.1,2.3v7.4h1.2v-5.4c0-1.6,0.7-3.5,2.9-3.5c1.7,0,2.3,1.2,2.3,3v5.9h1.2v-6.2
		C123.1,17.2,122.2,15.6,119.8,15.6 M167.2,15.6c-2,0-2.7,1.1-3.1,2h0v-1.7h-1.2c0.1,0.8,0.1,1.5,0.1,2.3v7.4h1.2v-5.4
		c0-1.6,0.7-3.5,2.9-3.5c1.7,0,2.3,1.2,2.3,3v5.9h1.2v-6.2C170.5,17.2,169.6,15.6,167.2,15.6"/>
	<g>
		<path class="st0" d="M36,18C36,28,28,36,18,36C8.1,36,0,28,0,18C0,8.1,8.1,0,18,0C28,0,36,8.1,36,18"/>
		<path class="st1" d="M34.5,19.9c-0.3,0-0.5,0-0.8,0c-6.7,0-12.1,5.4-12.1,12.1c0,0.7,0.1,1.5,0.2,2.2
			C28.5,32.6,33.7,26.9,34.5,19.9"/>
		<path class="st1" d="M2.5,19.8c-0.3,0-0.6,0-1,0c0.8,7.1,6,12.8,12.9,14.3c0.1-0.7,0.2-1.5,0.2-2.2C14.6,25.3,9.2,19.8,2.5,19.8"
			/>
		<path class="st2" d="M2.5,18.1c1.3,0,2.6,0.2,3.9,0.5c0.4-6,5.5-10.8,11.6-10.8c6.2,0,11.2,4.8,11.6,10.9c1.3-0.4,2.6-0.6,4-0.6
			c0.3,0,0.6,0,0.9,0c0,0,0-0.1,0-0.1c0-9.1-7.4-16.6-16.6-16.6C8.9,1.4,1.5,8.9,1.5,18v0.1C1.8,18.1,2.2,18.1,2.5,18.1"/>
		<path class="st3" d="M19.8,32c0-5.6,3.3-10.4,8.1-12.6c-0.1-5.4-4.5-9.8-9.9-9.8c-5.4,0-9.8,4.3-9.9,9.7c4.9,2.2,8.3,7,8.3,12.7
			c0,0.9-0.1,1.7-0.2,2.5c0.6,0.1,1.2,0.1,1.8,0.1c0.7,0,1.3,0,2-0.1C19.9,33.6,19.8,32.8,19.8,32"/>
	</g>
</g>
</svg>
