<?xml version="1.0" encoding="utf-8"?>
<!-- Generator: Adobe Illustrator 22.0.1, SVG Export Plug-In . SVG Version: 6.00 Build 0)  -->
<svg version="1.1" id="Capa_1" xmlns="http://www.w3.org/2000/svg" xmlns:xlink="http://www.w3.org/1999/xlink" x="0px" y="0px"
	 viewBox="0 0 177.6 40.1" style="enable-background:new 0 0 177.6 40.1;" xml:space="preserve">
<style type="text/css">
	.st0{fill:#FFFFFF;}
	.st1{fill:#72A538;}
	.st2{fill:#31408C;}
	.st3{fill:#C4142D;}
</style>
<g>
	<path d="M75.1,23.2v-1.4c0-3.2-1.4-4.6-4.7-4.6c-1.2,0-2.7,0.3-3.8,0.8l0.1,2.4c0.9-0.7,2.2-1.2,3.4-1.2c1.7,0,2.4,0.6,2.4,2.3H71
		c-1.2,0-2.6,0.1-3.7,0.6c-1.1,0.5-1.9,1.5-1.9,3.1c0,2.1,1.9,3.2,3.8,3.2c1.3,0,2.7-0.7,3.4-1.9h0c0,0.3,0,1.1,0.1,1.6h2.5
		c-0.1-0.8-0.1-1.6-0.1-2.4C75.1,25.1,75.1,24.3,75.1,23.2 M71.9,25.6c-0.4,0.6-1.1,1-2,1c-1,0-1.8-0.4-1.8-1.3
		c0-1.7,1.9-1.9,3.1-1.9h1.2C72.5,24.2,72.4,24.9,71.9,25.6 M93.9,26.4c-2,0-2.9-1.5-2.9-3.5c0-2,1.1-3.4,2.9-3.4
		c0.9,0,1.4,0.2,1.9,0.4l0.3-2.2c-0.8-0.2-1.6-0.4-2.7-0.4c-3.4,0-5.3,2.5-5.3,5.6c0,3.3,1.8,5.7,5.4,5.7c1.2,0,2-0.1,2.8-0.4
		L96,25.9C95.6,26.1,94.7,26.4,93.9,26.4 M84,22.8c0,1.4-0.4,3.6-2.5,3.6c-1.8,0-1.8-1.8-1.8-3.1v-5.8h-2.8v6.9
		c0,2.4,1.1,4.3,3.7,4.3c1.5,0,2.7-0.7,3.6-1.7h0v1.5h2.7V17.5H84V22.8z M102,17.2c-3.2,0-5.7,2.2-5.7,5.8c0,3.1,2.1,5.6,5.7,5.6
		c3.6,0,5.7-2.5,5.7-5.6C107.7,19.4,105.2,17.2,102,17.2 M102,26.4c-2.2,0-2.7-2-2.7-3.8c0-1.6,0.9-3.2,2.7-3.2
		c1.9,0,2.7,1.6,2.7,3.2C104.7,24.4,104.2,26.4,102,26.4 M161.8,13.5h-1.7l-2,3h1L161.8,13.5z M49.3,13.6l-5.7,14.7h3.1l1.3-3.4
		l5.2-2.3h-4.3l2.1-6.1h0l2.1,6.1l2.1,5.7h3.3l-5.8-14.7H49.3z M65.5,17.3c-0.3-0.1-0.6-0.1-0.9-0.1c-1.7,0-2.9,1.7-3,2.7h0v-2.5
		h-2.5v10.9h2.8v-4c0-1.6,0-4.4,2.3-4.4c0.5,0,1,0.1,1.3,0.2V17.3z M171,17.4c-2.2,0-3.1,1.2-3.5,2.2h0v-1.9h-1.3
		c0.1,0.9,0.1,1.7,0.1,2.5v8.3h1.3v-6c0-1.8,0.8-3.9,3.2-3.9c1.8,0,2.6,1.3,2.6,3.3v6.6h1.3v-6.9C174.6,19.2,173.6,17.4,171,17.4
		 M174.6,10.5c-1.6,0-3,1.3-3,3c0,1.7,1.3,3,3,3c1.6,0,3-1.3,3-3C177.6,11.9,176.3,10.5,174.6,10.5 M174.6,15.9
		c-1.2,0-2.3-1-2.3-2.4c0-1.4,1-2.4,2.3-2.4c1.2,0,2.2,1,2.2,2.4C176.9,14.9,175.9,15.9,174.6,15.9 M110.7,21.5h5.5v-1.3h-5.5v-5.3
		h5.8v-1.3h-7.2v14.8h7.5v-1.3h-6V21.5z M151.2,28.4h1.3V17.6h-1.3V28.4z M159.4,17.4c-3.5,0-5,2.7-5,5.7s1.5,5.7,5,5.7
		c3.5,0,5-2.7,5-5.7S162.9,17.4,159.4,17.4 M159.4,27.6c-2.3,0-3.6-2-3.6-4.5s1.2-4.5,3.6-4.5c2.3,0,3.6,2,3.6,4.5
		S161.7,27.6,159.4,27.6 M147.3,18.5c0.7,0,1.6,0.2,2.3,0.6l0.1-1.3c-0.4-0.1-1.3-0.4-2.6-0.4c-3.2,0-5.3,2.3-5.3,5.7
		c0,3,1.7,5.7,5.2,5.7c1,0,1.9-0.1,2.8-0.4l-0.1-1.3c-0.8,0.3-1.6,0.5-2.4,0.5c-2.4,0-3.9-2.1-3.9-4.5
		C143.2,20.4,144.7,18.5,147.3,18.5 M152.5,13.5h-1.3v1.8h1.3V13.5z M140.1,21.4c0-2.8-1.1-4-3.8-4c-1,0-2.3,0.3-3.2,0.7v1.3
		c1-0.6,2.1-0.9,3.2-0.9c1.8,0,2.5,0.9,2.5,2.8v0.6h-0.3c-2.8,0-6.7,0.2-6.7,3.8c0,1,0.5,3.1,3.6,3.1c1.3,0,2.8-0.7,3.4-2h0v1.7h1.3
		c-0.1-0.7-0.1-1.4-0.1-2.3V21.4z M138.8,23.7c0,1.2-0.1,3.9-3.2,3.9c-1.2,0-2.2-0.5-2.2-1.9c0-2.4,2.8-2.6,5.1-2.6h0.4V23.7z
		 M130,27.6c-1.1,0-1.4-0.8-1.4-1.8v-7h2.5v-1.1h-2.5v-3.1l-1.3,0.5v2.6h-2.1v1.1h2.1v6.3c0,2,0.1,3.6,2.5,3.6
		c0.7,0,1.3-0.2,1.6-0.3l-0.1-1.1C130.9,27.5,130.5,27.6,130,27.6 M119.4,20.3c0-1.4,1-1.8,2.3-1.8c0.7,0,1.7,0.2,2.4,0.5l0.1-1.2
		c-1-0.4-2.1-0.5-2.7-0.5c-1.8,0-3.5,0.8-3.5,2.9c0,3.1,5.2,2.7,5.2,5.3c0,1.2-1.1,1.9-2.4,1.9c-1,0-2-0.3-2.8-0.7l-0.1,1.3
		c1,0.4,2,0.5,3,0.5c1.6,0,3.8-0.8,3.8-3.1C124.7,22.1,119.4,22.3,119.4,20.3 M176,12.8c0-0.7-0.4-1-1.2-1h-1.3v3.4h0.6v-1.5h0.4
		l0.9,1.5h0.6l-0.9-1.5C175.7,13.7,176,13.4,176,12.8 M174.1,13.3v-1h0.6c0.3,0,0.7,0.1,0.7,0.5c0,0.5-0.3,0.5-0.7,0.5H174.1z"/>
	<g>
		<path class="st0" d="M40.1,20.1c0,11.1-9,20.1-20.1,20.1C9,40.1,0,31.1,0,20.1C0,9,9,0,20.1,0C31.1,0,40.1,9,40.1,20.1"/>
		<path class="st1" d="M38.4,22.1c-0.3,0-0.6,0-0.9,0c-7.4,0-13.5,6.1-13.5,13.5c0,0.8,0.1,1.6,0.2,2.4C31.8,36.3,37.5,30,38.4,22.1
			"/>
		<path class="st1" d="M2.8,22.1c-0.4,0-0.7,0-1.1,0C2.6,30,8.5,36.4,16.1,38.1c0.1-0.8,0.2-1.6,0.2-2.5
			C16.3,28.2,10.2,22.1,2.8,22.1"/>
		<path class="st2" d="M2.8,20.1c1.5,0,2.9,0.2,4.3,0.6c0.5-6.7,6.1-12.1,13-12.1c6.9,0,12.5,5.4,13,12.1c1.4-0.4,2.9-0.7,4.5-0.7
			c0.3,0,0.7,0,1,0c0,0,0-0.1,0-0.1c0-10.2-8.3-18.5-18.4-18.5C9.9,1.6,1.6,9.9,1.6,20.1v0.1C2,20.1,2.4,20.1,2.8,20.1"/>
		<path class="st3" d="M22,35.6c0-6.2,3.7-11.6,9-14.1c-0.1-6-5-10.9-11-10.9c-6,0-10.9,4.8-11,10.8c5.4,2.4,9.2,7.8,9.2,14.1
			c0,1-0.1,1.9-0.3,2.8c0.7,0.1,1.4,0.1,2.1,0.1c0.7,0,1.5,0,2.2-0.1C22.1,37.5,22,36.5,22,35.6"/>
	</g>
</g>
</svg>
