<svg id="Capa_1" data-name="Capa 1" xmlns="http://www.w3.org/2000/svg" viewBox="0 0 138 128.48"><defs><style>.cls-1{fill:#1d1d1b;}.cls-2{fill:#fff;}.cls-3{fill:#499c2d;}.cls-4{fill:#184287;}.cls-5{fill:#e40521;}</style></defs><title>Artboard 1 copy 2</title><path class="cls-1" d="M45.72,89.31v-1c0-2.23-1-3.18-3.25-3.18a6.74,6.74,0,0,0-2.62.57l.06,1.68a4,4,0,0,1,2.33-.82c1.15,0,1.7.41,1.7,1.62H42.85a6,6,0,0,0-2.53.44A2.21,2.21,0,0,0,39,90.82a2.4,2.4,0,0,0,2.63,2.24A2.69,2.69,0,0,0,44,91.76h0a10.59,10.59,0,0,0,.09,1.13h1.73c0-.58-.08-1.11-.09-1.69s0-1.12,0-1.89M43.52,91a1.66,1.66,0,0,1-1.38.67c-.7,0-1.24-.28-1.24-.92,0-1.15,1.3-1.3,2.18-1.3h.85A2.5,2.5,0,0,1,43.52,91M51.88,89c0,1-.31,2.51-1.73,2.51-1.26,0-1.27-1.25-1.27-2.17v-4h-2V90.1c0,1.7.78,3,2.56,3A3.15,3.15,0,0,0,52,91.86h0v1h1.86V85.34h-2Zm6.85,2.51c-1.37,0-2-1.07-2-2.46s.78-2.39,2-2.39A3,3,0,0,1,60,87l.18-1.55a6.32,6.32,0,0,0-1.9-.25c-2.35,0-3.65,1.73-3.65,3.91s1.25,4,3.72,4a6.4,6.4,0,0,0,2-.25l-.08-1.63a4.1,4.1,0,0,1-1.51.36m56-10.94a2.08,2.08,0,1,0,2.05,2.08,2.07,2.07,0,0,0-2.05-2.08m0,3.76a1.68,1.68,0,1,1,1.55-1.68,1.59,1.59,0,0,1-1.55,1.68m-8.94-1.79h-1.16l-1.37,2.12H104Zm-78,.09-4,10.22H26l.89-2.34,3.58-1.61h-3l1.48-4.21h0l1.48,4.21,1.45,4h2.27l-4-10.22ZM39,85.23a2.08,2.08,0,0,0-.6-.06,2.31,2.31,0,0,0-2.07,1.89h0V85.34H34.59v7.54h2V90.12c0-1.09,0-3.07,1.6-3.07a2,2,0,0,1,.88.16ZM98.49,93h.93V85.47h-.93Zm5.67-7.67c-2.42,0-3.5,1.88-3.5,3.92s1.07,3.92,3.5,3.92,3.49-1.88,3.49-3.92-1.07-3.92-3.49-3.92m0,7.05c-1.62,0-2.49-1.4-2.49-3.13s.87-3.13,2.49-3.13,2.48,1.4,2.48,3.13-.87,3.13-2.48,3.13m-8.4-6.26a4.25,4.25,0,0,1,1.6.38l.07-.88a5.49,5.49,0,0,0-1.81-.3,3.63,3.63,0,0,0-3.7,3.92c0,2.09,1.17,3.92,3.59,3.92a5.6,5.6,0,0,0,1.92-.26L97.35,92a4.81,4.81,0,0,1-1.69.34,2.84,2.84,0,0,1-2.72-3.13c0-1.82,1-3.13,2.82-3.13m16.42-.79a2.38,2.38,0,0,0-2.42,1.51h0V85.47h-.89c.06.6.06,1.19.06,1.76V93h.93V88.82c0-1.25.53-2.73,2.22-2.73,1.28,0,1.78.91,1.78,2.32V93h.92V88.17c0-1.65-.71-2.88-2.56-2.88m-47.83-.12a3.77,3.77,0,0,0-3.94,4,3.94,3.94,0,0,0,7.89,0,3.77,3.77,0,0,0-3.95-4m0,6.37c-1.49,0-1.89-1.36-1.89-2.61a1.92,1.92,0,1,1,3.79,0c0,1.26-.4,2.61-1.9,2.61M90.8,88.09c0-2-.78-2.79-2.63-2.79a5.92,5.92,0,0,0-2.2.51v.9a4,4,0,0,1,2.2-.62c1.25,0,1.7.65,1.7,1.93v.38H89.7c-1.94,0-4.61.12-4.61,2.63,0,.68.34,2.11,2.47,2.11a2.63,2.63,0,0,0,2.38-1.38h0V93h.91a10.72,10.72,0,0,1-.07-1.57Zm-.93,1.56c0,.81,0,2.7-2.22,2.7-.85,0-1.56-.37-1.56-1.35,0-1.64,1.91-1.81,3.51-1.81h.26Zm25.84-7.45c0-.5-.3-.69-.86-.69H114v2.36h.43v-1h.27l.6,1h.45l-.63-1a.59.59,0,0,0,.61-.63m-1.3.32v-.67h.39c.22,0,.48,0,.48.33s-.22.35-.48.35Zm-38,4.83c0-1,.66-1.25,1.61-1.25a4.36,4.36,0,0,1,1.66.35l.09-.8A5.85,5.85,0,0,0,78,85.29c-1.23,0-2.44.56-2.44,2,0,2.18,3.6,1.9,3.6,3.67,0,.85-.78,1.34-1.66,1.34a4.4,4.4,0,0,1-2-.47l-.09.91a5.64,5.64,0,0,0,2.1.35c1.13,0,2.61-.54,2.61-2.13,0-2.45-3.69-2.28-3.69-3.67m-6.08.79h3.81v-.88H70.37V83.59h4v-.88h-5V93h5.2v-.88H70.37Zm13.44,4.22c-.75,0-1-.56-1-1.23V86.26h1.7v-.79h-1.7V83.34l-.92.32v1.81H80.42v.79h1.47v4.38c0,1.37.06,2.5,1.7,2.5a3.45,3.45,0,0,0,1.13-.2l-.06-.77a2.11,2.11,0,0,1-.85.18"/><path class="cls-2" d="M93.31,55.29a24,24,0,1,1-24-24,24,24,0,0,1,24,24"/><path class="cls-3" d="M91.23,57.77c-.36,0-.71,0-1.07,0A16.15,16.15,0,0,0,74,73.83a16.54,16.54,0,0,0,.27,2.9,22.07,22.07,0,0,0,17-19"/><path class="cls-3" d="M48.62,57.73c-.43,0-.85,0-1.27.05a22.06,22.06,0,0,0,17.15,19A16.08,16.08,0,0,0,48.62,57.73"/><path class="cls-4" d="M48.62,55.37a18.57,18.57,0,0,1,5.16.73,15.56,15.56,0,0,1,31,.06,18.45,18.45,0,0,1,5.35-.79c.41,0,.81,0,1.21,0,0,0,0-.09,0-.13a22.09,22.09,0,0,0-44.17,0s0,.09,0,.14c.46,0,.94-.05,1.41-.05"/><path class="cls-5" d="M71.64,73.83A18.49,18.49,0,0,1,82.48,57a13.19,13.19,0,0,0-26.38-.09,18.49,18.49,0,0,1,11,16.89,18.88,18.88,0,0,1-.3,3.33,23.49,23.49,0,0,0,2.45.13,22.08,22.08,0,0,0,2.65-.16,18.58,18.58,0,0,1-.3-3.31"/></svg>