<?xml version="1.0" encoding="utf-8"?>
<!-- Generator: Adobe Illustrator 22.0.1, SVG Export Plug-In . SVG Version: 6.00 Build 0)  -->
<svg version="1.1" id="Layer_1" xmlns="http://www.w3.org/2000/svg" xmlns:xlink="http://www.w3.org/1999/xlink" x="0px" y="0px"
	 viewBox="0 0 110 116" style="enable-background:new 0 0 110 116;" xml:space="preserve">
<g id="yPntXd.tif">
	<g>
		<path d="M110,68.4c-0.7,2.2-1.6,4.1-3.4,5.6c-1.8,1.4-3.8,2.2-6.1,2.2c-5.9,0-11.9,0-17.8,0c-0.9,0-1.3,0.2-1.4,1.2
			c-0.5,3.3-1.4,6.5-3.9,9c-2.8,2.8-6,3.9-9.9,2.3c-0.6-0.2-0.8,0.1-1.2,0.4c-1.9,1.8-4.2,3.1-6.9,2.9c-2.8-0.1-5.4-1-6.9-3.6
			c-0.4-0.7-0.7-0.5-1.3-0.2c-2.5,1.5-5.1,1.9-7.9,1.2c-1.6-0.4-2.9-1.3-3.6-2.8c-0.3-0.6-0.6-0.8-1.3-0.5C35,87.4,31.6,87.9,28,88
			c-5.9,0.3-11.8,0.7-17.8,1c-2.5,0.1-5.1,0.3-7.6,0.4c-1.4,0.1-2.5-0.9-2.6-2.1c-0.1-1.2,0.6-2.2,2.1-2.4c1.5-0.2,3.1-0.3,4.6-0.4
			c4.5-0.2,9.1-0.4,13.6-0.7c4-0.3,7.9-0.2,11.9-0.8c4.2-0.6,7.7-2.5,10.7-5.5c2.1-2.2,4.2-4.4,6.5-6.4c0.5-0.5,1.1-0.8,1.7-1
			c4.1-1.5,8.2-3.2,11.9-5.7c1.7-1.1,3.2-2.5,4.2-4.3c0.9-1.7,1.2-3.4,0.6-5.3c-0.6-1.7-1.8-2.5-3.6-2.5c-2,0-3.8,0.7-5.6,1.5
			c-7.9,3.8-15.8,7.4-23.8,11c-0.9,0.4-1.7,0.8-2.7,0.3c-1.6-0.7-1.9-2.7-0.6-3.8c0.7-0.6,1.5-0.9,2.3-1.2c0.9-0.3,1.1-0.9,1.1-1.8
			c0-7.8,0-15.5,0-23.3c0-0.5-0.1-0.9,0-1.4c0.2-0.9-0.2-1.2-1-1.4c-1-0.1-2,0-2.9,0.6c-1.4,0.9-2.5,2.1-3.8,3.2
			c-5.3,4.6-11.1,8.5-16.8,12.6c-2.2,1.6-4.5,3.2-6.7,4.8c-1.7,1.1-3.6,0.5-3.9-1.3c-0.2-1.1,0.4-1.9,1.3-2.5c2.7-2,5.5-3.9,8.2-5.9
			c6-4.4,12.1-8.6,17.6-13.7c2.5-2.3,5.5-3.3,8.9-2.1c0.4,0.1,0.7,0.2,1-0.3c1.6-2.4,3.9-3.8,6.6-4.5c19.3,0,38.5,0,57.8,0
			c2.5,0.7,4.7,1.8,6.4,3.8c1.1,1.3,1.6,2.8,2.2,4.3C110,43.8,110,56.1,110,68.4z M60.2,71.6c0.3,0,0.6,0,1,0c12.8,0,25.7,0,38.5,0
			c3.8,0,5.8-2,5.8-5.7c0-7,0-14,0-21c0-1.5,0-1.5-1.5-1.5c-10.1,0-20.3,0-30.4,0c-10.8,0-21.6,0-32.4,0c-0.8,0-1.4,0-1.4,1.1
			c0,4,0,8,0,12c0,0.8,0.2,1,1,0.6c2.3-1.1,4.7-2.2,7-3.2c3.7-1.6,7.1-3.6,10.9-5c2.4-0.9,4.9-1.5,7.5-1c4.4,0.9,7.3,5.7,6.4,10.5
			c-0.6,3.4-2.5,6.1-5.1,8.3C65.3,68.6,62.7,70,60.2,71.6z M72.7,34.2c10.4,0,20.8,0,31.2,0c1.7,0,1.8-0.3,1.4-1.9
			c-0.7-2.7-3.1-4.4-6.1-4.4c-17.7,0-35.5,0-53.2,0c-2.9,0-5.1,1.7-6,4.5c-0.5,1.6-0.3,1.9,1.3,1.9C51.8,34.2,62.2,34.2,72.7,34.2z
			 M60.7,76.2c-0.5,0-1.1,0-1.6,0c-2.3,0-2.4,0-2.6,2.3c-0.2,1.9-0.6,3.7-0.5,5.6c0.1,1.1,0.3,2.2,1.4,2.7c2.2,1.3,6-0.1,6.9-2.5
			c0-0.1,0.1-0.3,0.1-0.4c-0.2-2.3,0-4.5,0.3-6.7c0.1-0.7-0.1-1.1-0.9-1C62.7,76.2,61.7,76.2,60.7,76.2z M73,76.2
			C73,76.2,73,76.2,73,76.2c-0.4,0-0.8,0-1.2,0c-2.4,0-2.4,0-2.8,2.4c-0.2,1.5-0.4,2.9-0.2,4.4c0.1,1.4,0.6,1.7,1.9,1.8
			c1.1,0,2-0.4,2.8-1.1c2-1.8,2.6-4.2,3-6.7c0.1-0.5-0.2-0.7-0.7-0.7C75,76.2,74,76.2,73,76.2z M46,85.1c2.1,0,5.1-2,5.4-3.7
			c0.3-1.4,0.4-2.8,0.5-4.1c0-0.3,0.1-0.8-0.3-0.9c-0.4-0.1-0.8-0.2-1.1,0.1c-0.3,0.2-0.5,0.5-0.8,0.7c-1.8,1.7-3.4,3.6-5.3,5.2
			c-0.5,0.5-1.2,0.8-0.9,1.7c0.3,0.9,1.1,0.9,1.8,1C45.6,85.1,45.8,85.1,46,85.1z"/>
	</g>
</g>
</svg>
