<?xml version="1.0" encoding="utf-8"?>
<!-- Generator: Adobe Illustrator 22.0.1, SVG Export Plug-In . SVG Version: 6.00 Build 0)  -->
<svg version="1.1" id="Layer_1" xmlns="http://www.w3.org/2000/svg" xmlns:xlink="http://www.w3.org/1999/xlink" x="0px" y="0px"
	 viewBox="0 0 105 130" style="enable-background:new 0 0 105 130;" xml:space="preserve">
<g id="_x36_0CXOa.tif">
	<g>
		<path d="M0.5,43.2c0.4-1.6,1.6-2.5,3.3-2.4c0.5,0,1,0,1.5,0c2.6,0,5.3-0.1,7.9-0.2c2.2,0,4.4-0.1,6.5-0.2c2.2-0.1,4.4-0.1,6.7-0.2
			c2.1-0.1,4.3-0.1,6.4-0.2c2.2-0.1,4.4-0.1,6.6-0.2c2.1-0.1,4.3-0.1,6.4-0.2c2.2-0.1,4.4-0.1,6.6-0.2c2.1-0.1,4.2-0.1,6.4-0.2
			c2.2-0.1,4.4-0.1,6.6-0.2c2.1-0.1,4.3-0.1,6.4-0.2c1.1,0,2.1,0,3.2-0.1c0.4,0,0.5-0.2,0.6-0.5c2.3-5.9,4.6-11.8,6.9-17.7
			c0.6-1.7,1.7-2.5,3.4-2.8c5-0.8,10-1.7,15.1-2.5c1.7-0.3,3.3,0.8,3.5,2.5c0.3,1.6-0.9,3.1-2.5,3.4c-4.6,0.8-9.2,1.6-13.8,2.3
			c-0.3,0-0.4,0.2-0.6,0.4c-2,5.3-4.1,10.5-6.2,15.8c-3.1,8-6.3,16-9.4,24c-2.2,5.7-4.4,11.3-6.6,17c-0.1,0.3-0.1,0.4,0.2,0.6
			c2.2,1.7,4.5,3.5,6.7,5.3c1.9,1.5,3.4,3.2,4.2,5.6c0.5,1.6,0.7,3.2,0.3,4.8c-0.2,0.9-0.7,1.7-1.2,2.4c-1,1.5-2.4,2.7-4.2,3.4
			c-0.1,0-0.1,0.1-0.3,0.1c1.1,0.3,2.1,0.8,2.8,1.7c1.6,1.7,2.1,3.7,1.4,6c-0.7,2.3-2.3,3.6-4.7,4.1c-0.1,0-0.2,0-0.2,0.1
			c-0.5,0-1,0-1.5,0c0,0-0.1,0-0.1,0c-2.5-0.4-4.4-2.2-5-4.7c-0.5-2.3,0.4-4.8,2.5-6.2c0.1-0.1,0.2-0.1,0.2-0.2
			c-16.6,0.1-33.3,0.1-49.9,0.2c0.1,0.2,0.2,0.3,0.3,0.4c2.7,2.2,3,6.3,0.6,8.8c-1,1-2.2,1.6-3.6,1.9c-0.5,0-1,0-1.5,0
			c-0.1,0-0.1,0-0.2,0c-4-0.6-6.2-4.9-4.5-8.5c0.5-0.9,1.1-1.7,2-2.3c-0.2-0.1-0.3,0-0.4,0c-1.3,0-2.7,0-4,0c-1.8,0-3.2-1.8-2.8-3.5
			C2.8,99,4,98.1,5.6,98.1c6.3,0,12.6,0,18.9-0.1c3.9,0,7.8,0,11.8,0c6.1,0,12.1,0,18.2,0c4.3-0.1,8.7,0,13,0c0.6,0,1.2,0,1.8-0.2
			c1.1-0.3,1.7-1.3,1.6-2.5c-0.2-1.4-0.9-2.4-1.9-3.3c-3.2-2.6-6.5-5.1-9.8-7.7c-0.5-0.4-0.9-0.6-1.6-0.6c-0.4,0-0.9-0.1-1.3-0.1
			c-1.8-0.2-3.6-0.3-5.5-0.5c-1.6-0.1-3.2-0.2-4.7-0.4c-2.5-0.2-5-0.4-7.4-0.6c-2-0.2-4-0.3-6.1-0.5c-2.7-0.2-5.5-0.4-8.2-0.7
			c-2.7-0.2-5.5-0.4-8.2-0.7c-2.9-0.2-5.9-0.5-8.8-0.7c-1.7-0.1-2.8-1.1-3-2.6c-0.1-0.7-0.2-1.4-0.3-2c-0.3-2.1-0.5-4.2-0.8-6.4
			c-0.3-2.4-0.6-4.8-0.9-7.2c-0.3-2.1-0.5-4.2-0.8-6.3c-0.3-2.4-0.6-4.7-0.9-7.1c-0.2-1.2-0.3-2.4-0.5-3.7C0.5,44,0.5,43.6,0.5,43.2
			z M61.6,49.1c0-1.5,0-2.9,0-4.4c0-0.7,0-0.7-0.7-0.7c-2.9,0.1-5.8,0.1-8.8,0.2c-0.4,0-0.5,0.1-0.5,0.5c0,3,0,6.1,0,9.1
			c0,0.4,0.1,0.5,0.5,0.5c3,0,6,0,9,0c0.4,0,0.5-0.1,0.5-0.5C61.6,52.1,61.6,50.6,61.6,49.1z M49.6,49.2c0-1.5,0-3,0-4.5
			c0-0.4-0.1-0.5-0.5-0.5c-0.5,0-0.9,0.1-1.4,0.1c-2.5,0.1-5,0.1-7.5,0.2c-0.4,0-0.5,0.1-0.5,0.5c0,2.9,0,5.8,0,8.8
			c0,0.4,0.1,0.5,0.5,0.5c3,0,5.9,0,8.9,0c0.4,0,0.5-0.1,0.5-0.5C49.5,52.2,49.6,50.7,49.6,49.2z M51.7,72.5c0,1.5,0,3,0,4.5
			c0,0.3,0.1,0.4,0.4,0.4c1.6,0.1,3.3,0.2,4.9,0.4c0.8,0.1,1.6,0.1,2.3,0.2c0.3,0.1,0.5,0,0.6-0.3c0.5-1.4,1.1-2.8,1.6-4.2
			c0.1-0.2,0.1-0.3,0.1-0.5c0-1.6,0-3.3,0-4.9c0-0.3-0.1-0.4-0.4-0.4c-3,0-6,0-9,0c-0.3,0-0.4,0.1-0.4,0.4
			C51.7,69.6,51.7,71,51.7,72.5z M32.6,54.2c1.5,0,3,0,4.5,0c0.3,0,0.4-0.1,0.4-0.4c0-2.9,0-5.9,0-8.8c0-0.3-0.1-0.4-0.4-0.4
			c-0.8,0-1.5,0-2.3,0.1c-2.2,0.1-4.5,0.1-6.7,0.2c-0.3,0-0.5,0.1-0.5,0.5c0,2.8,0,5.7,0,8.5c0,0.4,0.1,0.5,0.5,0.5
			C29.6,54.1,31.1,54.2,32.6,54.2z M56.7,56.3c-1.5,0-3,0-4.5,0c-0.4,0-0.5,0.1-0.5,0.5c0,2.8,0,5.5,0,8.3c0,0.4,0.1,0.5,0.5,0.5
			c3,0,6,0,9,0c0.4,0,0.5-0.1,0.5-0.5c0-2.8,0-5.6,0-8.4c0-0.4-0.1-0.5-0.5-0.5C59.7,56.3,58.2,56.3,56.7,56.3z M32.6,65.6
			c1.5,0,3,0,4.5,0c0.3,0,0.4-0.1,0.4-0.4c0-2.8,0-5.7,0-8.5c0-0.3-0.1-0.4-0.4-0.4c-3,0-6.1,0-9.1,0c-0.3,0-0.4,0.1-0.4,0.4
			c0,2.8,0,5.6,0,8.4c0,0.4,0.1,0.5,0.5,0.5C29.6,65.6,31.1,65.6,32.6,65.6z M20.5,65.6c1.5,0,3,0,4.5,0c0.4,0,0.5-0.1,0.5-0.5
			c0-2.8,0-5.5,0-8.3c0-0.4-0.1-0.5-0.5-0.5c-3,0-5.9,0-8.9,0c-0.4,0-0.5,0.1-0.5,0.5c0,2.8,0,5.5,0,8.3c0,0.4,0.1,0.5,0.5,0.5
			C17.5,65.6,19,65.6,20.5,65.6z M44.7,56.3c-1.5,0-3,0-4.5,0c-0.4,0-0.5,0.1-0.5,0.5c0,2.8,0,5.5,0,8.3c0,0.4,0.1,0.5,0.5,0.5
			c3,0,6,0,8.9,0c0.4,0,0.5-0.1,0.5-0.5c0-2.8,0-5.5,0-8.3c0-0.4-0.1-0.5-0.5-0.5C47.6,56.3,46.1,56.3,44.7,56.3z M20.5,54.2
			c1.5,0,3,0,4.5,0c0.4,0,0.5-0.1,0.5-0.5c0-2.8,0-5.6,0-8.4c0-0.4-0.1-0.4-0.4-0.4c-1.8,0.1-3.6,0.1-5.4,0.1
			c-1.1,0-2.3,0.1-3.4,0.1c-0.5,0-0.6,0.1-0.6,0.6c0,2.7,0,5.4,0,8.1c0,0.4,0.1,0.5,0.5,0.5C17.6,54.1,19,54.2,20.5,54.2z
			 M44.7,67.7c-1.5,0-3,0-4.5,0c-0.4,0-0.5,0.1-0.5,0.5c0,2.6,0,5.2,0,7.7c0,0.4,0.1,0.5,0.5,0.6c1.1,0.1,2.2,0.2,3.3,0.3
			c1.9,0.1,3.8,0.3,5.7,0.4c0.4,0,0.4-0.1,0.4-0.4c0-2.9,0-5.8,0-8.6c0-0.3-0.1-0.4-0.4-0.4C47.6,67.7,46.2,67.7,44.7,67.7z
			 M32.6,67.7c-1.4,0-2.9,0-4.3,0c-0.6,0-0.6,0-0.6,0.7c0,2.1,0,4.1,0,6.2c0,1-0.2,0.9,0.9,1c0.1,0,0.1,0,0.2,0
			c1.6,0.1,3.2,0.3,4.8,0.4c1.2,0.1,2.4,0.2,3.6,0.3c0.4,0,0.5,0,0.5-0.4c0-2.5,0-5.1,0-7.6c0-0.4-0.1-0.5-0.5-0.5
			C35.6,67.7,34.1,67.7,32.6,67.7z M63.8,49c0,1.6,0,3.1,0,4.7c0,0.4,0.1,0.5,0.5,0.5c1.5,0,3,0,4.5,0c0.3,0,0.4-0.1,0.5-0.4
			c1.3-3.3,2.5-6.5,3.8-9.8c0.1-0.3,0.1-0.4-0.3-0.4c-0.8,0-1.6,0-2.4,0.1c-2,0.1-4.1,0.1-6.1,0.1c-0.4,0-0.5,0.2-0.5,0.6
			C63.8,45.9,63.8,47.5,63.8,49z M20.5,67.7c-1.5,0-3,0-4.5,0c-0.2,0-0.4,0-0.4,0.3c0,2.1,0,4.1,0,6.2c0,0.2,0.1,0.3,0.3,0.3
			c1.1,0.1,2.1,0.2,3.1,0.2c2,0.2,4,0.3,5.9,0.5c0.5,0,0.5,0,0.5-0.5c0-2.2,0-4.4,0-6.6c0-0.4-0.1-0.5-0.5-0.5
			C23.5,67.7,22,67.7,20.5,67.7z M13.4,49.6c0-1.4,0-2.7,0-4.1c0-0.4-0.1-0.5-0.5-0.5c-0.3,0-0.6,0-1,0.1c-2.1,0.1-4.3,0.1-6.4,0.2
			c-0.3,0-0.4,0.1-0.4,0.4c0.1,0.8,0.2,1.5,0.3,2.3c0.2,1.9,0.5,3.8,0.7,5.7c0,0.3,0.2,0.4,0.5,0.4c2.1,0,4.2,0,6.4,0
			c0.3,0,0.5-0.1,0.4-0.4C13.4,52.4,13.4,51,13.4,49.6z M13.4,61c0-1.3,0-2.7,0-4c0-0.7,0.1-0.7-0.7-0.7c-1.9,0-3.8,0-5.7,0
			c-0.6,0-0.6,0-0.5,0.6c0,0,0,0.1,0,0.1c0.2,1.5,0.4,2.9,0.5,4.4c0.2,1.3,0.3,2.5,0.5,3.8c0,0.3,0.2,0.4,0.4,0.4c1.7,0,3.4,0,5,0
			c0.3,0,0.4-0.1,0.4-0.4C13.4,63.8,13.4,62.4,13.4,61z M13.4,71c0-1,0-1.9,0-2.9c0-0.2,0-0.4-0.3-0.4c-1.7,0-3.3,0-5,0
			c-0.2,0-0.3,0.1-0.3,0.3C7.9,68.5,8,69.1,8,69.6c0.2,1.3,0.3,2.7,0.5,4c0,0.2,0.1,0.3,0.3,0.3c1.4,0.1,2.8,0.2,4.2,0.3
			c0.3,0,0.4-0.1,0.4-0.4C13.4,72.9,13.4,71.9,13.4,71z M13.2,105.6c-1.9,0-3.5,1.5-3.5,3.4c0,1.9,1.5,3.4,3.5,3.5
			c1.9,0,3.5-1.5,3.5-3.4C16.6,107.1,15.1,105.6,13.2,105.6z M73.1,109c0-2-1.5-3.5-3.4-3.5c-2,0-3.5,1.5-3.5,3.4
			c0,2,1.5,3.4,3.4,3.5C71.6,112.5,73.1,111,73.1,109z M63.8,60.9c0,1.4,0,2.8,0,4.1c0,0.2-0.1,0.5,0.2,0.5c0.3,0,0.6,0.1,0.8-0.3
			c1.1-2.9,2.2-5.7,3.3-8.6c0.1-0.3,0.1-0.4-0.3-0.4c-1.2,0-2.4,0-3.7,0c-0.4,0-0.5,0.1-0.5,0.5C63.8,58.2,63.8,59.5,63.8,60.9z"/>
		<path d="M13.1,107.2c1.1,0,1.9,0.8,2,1.9c0,1.1-0.9,1.9-1.9,1.9c-1.1,0-1.9-0.8-1.9-1.9C11.2,108,12,107.2,13.1,107.2z"/>
		<path d="M67.7,109.1c0-1.1,0.8-1.9,1.9-1.9c1.1,0,1.9,0.9,1.9,1.9c0,1.1-0.9,1.9-2,1.9C68.6,111,67.7,110.2,67.7,109.1z"/>
	</g>
</g>
</svg>
